<svg width="67" height="11" viewBox="0 0 67 11" fill="none" xmlns="http://www.w3.org/2000/svg">
<g clip-path="url(#clip0)">
<path d="M6.30698 0L0 11L12.614 11L6.30698 0Z" fill="white"/>
<path d="M15.8517 10.7275L15.8517 1.25317L21.9247 1.25317V3.25917L17.9571 3.25917V5.26516L21.4475 5.26516V7.18639L17.9665 7.18639V10.7275H15.8517Z" fill="white"/>
<path d="M23.1318 10.7268V1.25244L25.256 1.25244V10.7268H23.1318Z" fill="white"/>
<path d="M29.3359 7.2045L28.5967 7.2045V10.7362H26.5006V1.25244L30.2249 1.25244C32.0871 1.25244 33.2755 2.53326 33.2755 4.21905C33.2755 5.49987 32.5736 6.47933 31.4133 6.89371L33.3223 10.7268L31.0109 10.7268L29.3359 7.2045ZM29.8225 5.38686C30.6834 5.38686 31.1513 4.90655 31.1513 4.23789C31.1513 3.53155 30.6834 3.08891 29.8225 3.08891H28.5873V5.38686L29.8225 5.38686Z" fill="white"/>
<path d="M34.0427 10.7268V1.25244L40.0035 1.25244V3.2396L36.1388 3.2396V5.04782L39.6479 5.04782V6.90313L36.1388 6.90313V8.72076H40.0128V10.7268L34.0427 10.7268Z" fill="white"/>
<path d="M48.0416 3.26785V10.7268H45.9455V3.26785L43.0447 3.26785V1.25244L50.9518 1.25244V3.26785L48.0416 3.26785Z" fill="white"/>
<path d="M52.2245 10.7268V1.25244L54.3206 1.25244V8.71135H58.3911V10.7268L52.2245 10.7268Z" fill="white"/>
<path d="M64.7635 1.25244L67 1.25244L63.5564 10.7268L61.3948 10.7268L57.9419 1.25244L60.2532 1.25244L62.5271 7.92025L64.7635 1.25244Z" fill="white"/>
</g>
<defs>
<clipPath id="clip0">
<rect width="67" height="11" fill="white"/>
</clipPath>
</defs>
</svg>
