<svg id="Layer_1" data-name="Layer 1" xmlns="http://www.w3.org/2000/svg" viewBox="0 0 34 34"><defs><style>.cls-1{fill:#fb2c54;}</style></defs><title>hamburger</title><circle class="cls-1" cx="17" cy="17" r="17"/><path d="M9.5,9h15A1.5,1.5,0,0,1,26,10.5h0A1.5,1.5,0,0,1,24.5,12H9.5A1.5,1.5,0,0,1,8,10.5H8A1.5,1.5,0,0,1,9.5,9Z"/><path d="M9.5,15h15A1.5,1.5,0,0,1,26,16.5h0A1.5,1.5,0,0,1,24.5,18H9.5A1.5,1.5,0,0,1,8,16.5H8A1.5,1.5,0,0,1,9.5,15Z"/><path d="M9.5,21h15A1.5,1.5,0,0,1,26,22.5h0A1.5,1.5,0,0,1,24.5,24H9.5A1.5,1.5,0,0,1,8,22.5H8A1.5,1.5,0,0,1,9.5,21Z"/></svg>