<svg xmlns="http://www.w3.org/2000/svg" width="71.111" height="50" viewBox="0 0 71.111 50">
  <g id="menu_1_" data-name="menu (1)" transform="translate(0 -76)">
    <g id="Group_41" data-name="Group 41" transform="translate(0 98.222)">
      <g id="Group_40" data-name="Group 40">
        <path id="Path_251" data-name="Path 251" d="M68.333,236H2.778a2.778,2.778,0,0,0,0,5.556H68.333a2.778,2.778,0,1,0,0-5.556Z" transform="translate(0 -236)" fill="#fff"/>
      </g>
    </g>
    <g id="Group_43" data-name="Group 43" transform="translate(0 76)">
      <g id="Group_42" data-name="Group 42">
        <path id="Path_252" data-name="Path 252" d="M68.333,76H2.778a2.778,2.778,0,0,0,0,5.556H68.333a2.778,2.778,0,1,0,0-5.556Z" transform="translate(0 -76)" fill="#fff"/>
      </g>
    </g>
    <g id="Group_45" data-name="Group 45" transform="translate(0 120.444)">
      <g id="Group_44" data-name="Group 44" transform="translate(0 0)">
        <path id="Path_253" data-name="Path 253" d="M68.333,396H2.778a2.778,2.778,0,0,0,0,5.556H68.333a2.778,2.778,0,1,0,0-5.556Z" transform="translate(0 -396)" fill="#fff"/>
      </g>
    </g>
  </g>
</svg>
