<svg id="Layer_1" data-name="Layer 1" xmlns="http://www.w3.org/2000/svg" viewBox="0 0 33 33"><defs><style>.cls-1{fill:#fb2c54;}.cls-2{fill:#fff;}</style></defs><title>hamburger</title><circle class="cls-1" cx="16.5" cy="16.5" r="16.5"/><path class="cls-2" d="M8.5,9h15A1.5,1.5,0,0,1,25,10.5h0A1.5,1.5,0,0,1,23.5,12H8.5A1.5,1.5,0,0,1,7,10.5H7A1.5,1.5,0,0,1,8.5,9Z"/><path class="cls-2" d="M8.5,15h15A1.5,1.5,0,0,1,25,16.5h0A1.5,1.5,0,0,1,23.5,18H8.5A1.5,1.5,0,0,1,7,16.5H7A1.5,1.5,0,0,1,8.5,15Z"/><path class="cls-2" d="M8.5,21h15A1.5,1.5,0,0,1,25,22.5h0A1.5,1.5,0,0,1,23.5,24H8.5A1.5,1.5,0,0,1,7,22.5H7A1.5,1.5,0,0,1,8.5,21Z"/></svg>