<svg id="Layer_1" data-name="Layer 1" xmlns="http://www.w3.org/2000/svg" viewBox="0 0 258.06 32"><defs><style>.cls-1{fill:#fe2c55;}.cls-2{fill:#fff;}.cls-3{fill:#25f4ee;}.cls-4{fill:#ee3658;}</style></defs><title>logo</title><path class="cls-1" d="M21,12.38a12.69,12.69,0,0,0,7.31,2.36V9.49a9.38,9.38,0,0,1-1.52-.15v4.11a12.16,12.16,0,0,1-7.31-2.36V21.83a9.72,9.72,0,0,1-9.75,9.75A9.48,9.48,0,0,1,4.34,29.9a9.61,9.61,0,0,0,6.93,2.9A9.72,9.72,0,0,0,21,23ZM22.93,7A7.32,7.32,0,0,1,21,2.78V2.1H19.58A7.37,7.37,0,0,0,22.93,7ZM7.7,25.79a4.35,4.35,0,0,1-.91-2.67,4.44,4.44,0,0,1,4.5-4.42,4.31,4.31,0,0,1,1.37.23V13.52a10.21,10.21,0,0,0-1.52-.08v4.11a4.31,4.31,0,0,0-1.37-.23,4.49,4.49,0,0,0-4.5,4.42A4.39,4.39,0,0,0,7.7,25.79Z" transform="translate(0 -0.8)"/><path class="cls-2" d="M19.5,11.09a12.69,12.69,0,0,0,7.31,2.36V9.33a7.37,7.37,0,0,1-3.89-2.21,7.37,7.37,0,0,1-3.35-5H15.77v21a4.44,4.44,0,0,1-4.5,4.42A4.55,4.55,0,0,1,7.7,25.87a4.43,4.43,0,0,1,2.06-8.38,4.31,4.31,0,0,1,1.37.23V13.52a9.56,9.56,0,0,0-9.6,9.6A9.75,9.75,0,0,0,4.27,29.9a9.48,9.48,0,0,0,5.41,1.68,9.72,9.72,0,0,0,9.75-9.75Z" transform="translate(0 -0.8)"/><path class="cls-3" d="M26.82,9.33V8.19A7,7,0,0,1,22.93,7,8.13,8.13,0,0,0,26.82,9.33ZM19.58,2.1c0-.23-.08-.38-.08-.61V.8H14.17v21a4.5,4.5,0,0,1-6.48,4,4.51,4.51,0,0,0,8.08-2.67V2.1ZM11,13.37V12.23a8.28,8.28,0,0,0-1.37-.08A9.64,9.64,0,0,0,0,21.83,9.79,9.79,0,0,0,4.34,29.9a9.5,9.5,0,0,1-2.82-6.78A9.78,9.78,0,0,1,11,13.37Z" transform="translate(0 -0.8)"/><path class="cls-4" d="M132.18,18.89a2.07,2.07,0,1,1-2.07-2.07A2.08,2.08,0,0,1,132.18,18.89Z" transform="translate(0 -0.8)"/><path class="cls-3" d="M132.18,25.31a2.07,2.07,0,1,1-2.07-2.07A2.08,2.08,0,0,1,132.18,25.31Z" transform="translate(0 -0.8)"/><path class="cls-2" d="M34.5,9.07H50l-1.47,4.41h-4V29.86h-5V13.48h-5Z" transform="translate(0 -0.8)"/><path class="cls-2" d="M75.75,9.07H91.59l-1.4,4.41H85.85V29.86h-5V13.48H75.75Z" transform="translate(0 -0.8)"/><path class="cls-2" d="M50.95,16.15v-.47h4.95V29.86H50.95V16.15Z" transform="translate(0 -0.8)"/><path class="cls-2" d="M58.3,10V9h4.88v9.69l4.95-4.81h6l-6.22,6,7,10H69.33L64.72,23l-1.47,1.4v5.48H58.3V10Z" transform="translate(0 -0.8)"/><path class="cls-2" d="M109.24,10V9h4.88v9.69l5-4.81H125l-6.22,6,7,10h-5.42L115.66,23l-1.47,1.4v5.48h-4.95V10Z" transform="translate(0 -0.8)"/><path class="cls-2" d="M106.44,18a9.42,9.42,0,0,0-1.81-2.67A9.4,9.4,0,0,0,102,13.55c-.07-.07-.2-.07-.27-.13s-.07,0-.13-.07-.13-.07-.2-.07-.07,0-.13-.07-.07,0-.13-.07-.13,0-.13-.07h-.07a2.84,2.84,0,0,0-.74-.13.6.6,0,0,1-.33.07c-.2,0-.4-.07-.53-.07H98a5.16,5.16,0,0,0-1,.13h-.27c-.13,0-.2.07-.33.07a6.75,6.75,0,0,0-2,.87,8.05,8.05,0,0,0-1.74,1.34A10.47,10.47,0,0,0,91.33,17a9.09,9.09,0,0,0-.87,2,7.89,7.89,0,0,0,0,4.55,6.76,6.76,0,0,0,.87,2,8.06,8.06,0,0,0,1.34,1.74,8.59,8.59,0,0,0,1.74,1.34,10.7,10.7,0,0,0,2,.87,2.89,2.89,0,0,1,.33.07h.13a.51.51,0,0,1,.27.07h.13a.51.51,0,0,1,.27.07h.13a.85.85,0,0,1,.4.07h1.2a1.14,1.14,0,0,0,.47-.07.4.4,0,0,0,.27-.07h.13a.25.25,0,0,0,.2-.07h.13c.13,0,.2-.07.33-.07a6.76,6.76,0,0,0,2-.87,8.06,8.06,0,0,0,1.74-1.34,8.57,8.57,0,0,0,1.34-1.74,10.67,10.67,0,0,0,.87-2,8.09,8.09,0,0,0,.34-2.27A7.77,7.77,0,0,0,106.44,18Zm-3.88,4.48a6.17,6.17,0,0,1-.4,1,2.67,2.67,0,0,1-.67.8,7.09,7.09,0,0,1-.8.67,2.63,2.63,0,0,1-1,.4,4.52,4.52,0,0,1-.94.13h-.2a2.27,2.27,0,0,1-.67-.07c-.13,0-.27-.07-.4-.07a3.16,3.16,0,0,1-1-.4,2.67,2.67,0,0,1-.8-.67,7.08,7.08,0,0,1-.67-.8,2.64,2.64,0,0,1-.4-1,5.88,5.88,0,0,1-.13-1.14,6.58,6.58,0,0,1,.13-1.14,6.27,6.27,0,0,1,.4-1,2.67,2.67,0,0,1,.67-.8,7.09,7.09,0,0,1,.8-.67,3.16,3.16,0,0,1,1-.4,1,1,0,0,1,.47-.07,2.27,2.27,0,0,1,.67-.07h.2a3.1,3.1,0,0,1,1.4.33,5.75,5.75,0,0,1,1.34.87,3.57,3.57,0,0,1,.87,1.34,4.31,4.31,0,0,1,.33,1.6A3.39,3.39,0,0,1,102.56,22.5Z" transform="translate(0 -0.8)"/><path class="cls-2" d="M55.89,11.54a2.47,2.47,0,1,1-2.47-2.47A2.47,2.47,0,0,1,55.89,11.54Z" transform="translate(0 -0.8)"/><path class="cls-2" d="M140.2,16.82v3.81h5.21v2.81H140.2v6.35H137V14h9.76v2.81Z" transform="translate(0 -0.8)"/><path class="cls-2" d="M146.82,24.44A5.75,5.75,0,1,1,152.57,30,5.55,5.55,0,0,1,146.82,24.44Zm8.42,0a2.68,2.68,0,1,0-5.35,0,2.62,2.62,0,0,0,2.67,2.74A2.66,2.66,0,0,0,155.24,24.44Z" transform="translate(0 -0.8)"/><path class="cls-2" d="M167.88,19.16,167.21,22a3.26,3.26,0,0,0-1.54-.4c-1.54,0-2.61,1.4-2.61,4.48v3.68h-3V19.09h3v2.27a3.24,3.24,0,0,1,3.14-2.54A3.41,3.41,0,0,1,167.88,19.16Z" transform="translate(0 -0.8)"/><path class="cls-2" d="M184.52,25.25c0,2.21-1.47,4.55-4.95,4.55h-6.75V14h6.28c2.81,0,4.61,1.67,4.61,4.08a3.24,3.24,0,0,1-2.21,3.28A3.74,3.74,0,0,1,184.52,25.25ZM176,16.82V20.3h2.87a1.55,1.55,0,0,0,1.6-1.74,1.58,1.58,0,0,0-1.6-1.74ZM181.31,25a2,2,0,0,0-2.21-2H176v4H179A2,2,0,0,0,181.31,25Z" transform="translate(0 -0.8)"/><path class="cls-2" d="M196.69,19.09v10.7h-3V28.05a3.44,3.44,0,0,1-3.21,2c-2.81,0-4.28-1.87-4.21-5.08V19.09h3v5.55c0,1.67,1,2.41,2,2.41a2.28,2.28,0,0,0,2.41-2.47V19.09Z" transform="translate(0 -0.8)"/><path class="cls-2" d="M198.5,26.32h2.81c0,.6.53,1.27,1.6,1.27.87,0,1.54-.33,1.54-1,0-.47-.34-.67-1.14-.87l-1.4-.33c-2.74-.74-3.14-2.27-3.14-3.41,0-1.67,1.74-3.21,4.21-3.21,1.94,0,4.21.94,4.21,3.48h-2.87c0-.74-.6-1.07-1.34-1.07s-1.27.33-1.27.87.47.74,1.07.94l1.74.47c2.54.67,2.87,2.27,2.87,3.14,0,2.27-2.27,3.34-4.48,3.34S198.5,28.72,198.5,26.32Z" transform="translate(0 -0.8)"/><path class="cls-2" d="M208.79,15.42a1.86,1.86,0,0,1,1.87-1.81,1.81,1.81,0,0,1,1.87,1.81,1.87,1.87,0,0,1-3.74,0Zm.4,3.68h3v10.7h-3Z" transform="translate(0 -0.8)"/><path class="cls-2" d="M225.1,23.91v5.88h-3V24.24c0-1.67-1-2.47-2-2.47a2.3,2.3,0,0,0-2.41,2.54v5.48h-3V19.09h3v1.8a3.4,3.4,0,0,1,3.21-2.07C223.63,18.83,225.1,20.7,225.1,23.91Z" transform="translate(0 -0.8)"/><path class="cls-2" d="M237.94,25.38h-8.09a2.64,2.64,0,0,0,2.74,1.94,3.89,3.89,0,0,0,2.81-1.2l1.74,1.74a6,6,0,0,1-4.75,2.07,5.41,5.41,0,0,1-5.68-5.55,5.46,5.46,0,0,1,5.68-5.62,5.3,5.3,0,0,1,5.55,5.42A3.62,3.62,0,0,1,237.94,25.38ZM235,23.44a2.22,2.22,0,0,0-2.47-2,2.5,2.5,0,0,0-2.61,2Z" transform="translate(0 -0.8)"/><path class="cls-2" d="M239.08,26.32h2.81c0,.6.54,1.27,1.6,1.27.87,0,1.54-.33,1.54-1,0-.47-.33-.67-1.14-.87l-1.4-.33c-2.74-.74-3.14-2.27-3.14-3.41,0-1.67,1.74-3.21,4.21-3.21,1.94,0,4.21.94,4.21,3.48h-2.87c0-.74-.6-1.07-1.34-1.07s-1.27.33-1.27.87.47.74,1.07.94l1.74.47c2.54.67,2.88,2.27,2.88,3.14,0,2.27-2.27,3.34-4.48,3.34S239.08,28.72,239.08,26.32Z" transform="translate(0 -0.8)"/><path class="cls-2" d="M249.17,26.32H252c0,.6.54,1.27,1.6,1.27.87,0,1.54-.33,1.54-1,0-.47-.33-.67-1.14-.87l-1.4-.33c-2.74-.74-3.14-2.27-3.14-3.41,0-1.67,1.74-3.21,4.21-3.21,1.94,0,4.21.94,4.21,3.48H255c0-.74-.6-1.07-1.34-1.07s-1.27.33-1.27.87.47.74,1.07.94l1.74.47c2.54.67,2.87,2.27,2.87,3.14,0,2.27-2.27,3.34-4.48,3.34S249.17,28.72,249.17,26.32Z" transform="translate(0 -0.8)"/></svg>