<svg id="Layer_1" data-name="Layer 1" xmlns="http://www.w3.org/2000/svg" viewBox="0 0 177.42 22"><defs><style>.cls-1{fill:#fe2c55;}.cls-2{fill:#25f4ee;}.cls-3{fill:#ee3658;}</style></defs><title>logo-black</title><path class="cls-1" d="M14.46,8a8.73,8.73,0,0,0,5,1.62V6a6.45,6.45,0,0,1-1-.1V8.7a8.36,8.36,0,0,1-5-1.62v7.39a6.68,6.68,0,0,1-6.7,6.7A6.52,6.52,0,0,1,3,20a6.6,6.6,0,0,0,4.77,2,6.68,6.68,0,0,0,6.7-6.7ZM15.77,4.3a5,5,0,0,1-1.31-2.93V.89h-1A5.06,5.06,0,0,0,15.77,4.3ZM5.29,17.18a3,3,0,0,1-.63-1.83,3.05,3.05,0,0,1,3.09-3,3,3,0,0,1,.94.16V8.75a7,7,0,0,0-1-.05v2.83a3,3,0,0,0-.94-.16,3.09,3.09,0,0,0-3.09,3A3,3,0,0,0,5.29,17.18Z"/><path d="M13.41,7.07a8.73,8.73,0,0,0,5,1.62V5.87a5.06,5.06,0,0,1-2.67-1.52,5.06,5.06,0,0,1-2.3-3.4H10.84V15.4a3.05,3.05,0,0,1-3.09,3,3.13,3.13,0,0,1-2.46-1.2A3,3,0,0,1,6.7,11.47a3,3,0,0,1,.94.16V8.75A6.57,6.57,0,0,0,1,15.35,6.71,6.71,0,0,0,2.93,20a6.52,6.52,0,0,0,3.72,1.15,6.68,6.68,0,0,0,6.7-6.7Z"/><path class="cls-2" d="M18.44,5.87V5.08a4.83,4.83,0,0,1-2.67-.79A5.59,5.59,0,0,0,18.44,5.87Zm-5-5c0-.16-.05-.26-.05-.42V0H9.74V14.46a3.09,3.09,0,0,1-4.45,2.72,3.1,3.1,0,0,0,5.55-1.83V.89ZM7.6,8.64V7.86a5.69,5.69,0,0,0-.94-.05A6.63,6.63,0,0,0,0,14.46,6.73,6.73,0,0,0,3,20,6.53,6.53,0,0,1,1,15.35,6.72,6.72,0,0,1,7.6,8.64Z"/><path class="cls-3" d="M90.87,12.75a1.43,1.43,0,1,1-1.42-1.45A1.45,1.45,0,0,1,90.87,12.75Z"/><path class="cls-2" d="M90.87,17.25a1.43,1.43,0,1,1-1.42-1.45A1.45,1.45,0,0,1,90.87,17.25Z"/><path d="M23.72,5.86H34.38L33.37,9H30.61V20.44H27.17V9H23.72Z"/><path d="M52.08,5.86H63L62,9H59V20.44H55.57V9H52.08Z"/><path d="M35,10.83V10.5h3.4v9.94H35V10.83Z"/><path d="M40.08,6.52v-.7h3.36v6.8l3.4-3.37h4.09l-4.27,4.22,4.78,7H47.67l-3.17-4.83-1,1v3.84h-3.4V6.52Z"/><path d="M75.11,6.52v-.7h3.36v6.8l3.45-3.37h4l-4.27,4.22,4.78,7H82.74l-3.22-4.83-1,1v3.84h-3.4V6.52Z"/><path d="M73.17,12.14a6.61,6.61,0,0,0-1.24-1.87A6.47,6.47,0,0,0,70.1,9s-.14,0-.18-.09,0,0-.09,0-.09,0-.14,0,0,0-.09,0,0,0-.09,0-.09,0-.09,0h0a1.92,1.92,0,0,0-.51-.09.41.41,0,0,1-.23,0c-.14,0-.28,0-.37,0h-.87a3.48,3.48,0,0,0-.69.09h-.18c-.09,0-.14,0-.23,0a4.6,4.6,0,0,0-1.38.61,5.56,5.56,0,0,0-1.19.94,7.32,7.32,0,0,0-.92,1.17,6.44,6.44,0,0,0-.6,1.41,5.64,5.64,0,0,0,0,3.19,4.79,4.79,0,0,0,.6,1.41,5.64,5.64,0,0,0,.92,1.22,5.92,5.92,0,0,0,1.19.94,7.29,7.29,0,0,0,1.38.61,2,2,0,0,1,.23,0h.09a.34.34,0,0,1,.18,0h.09a.34.34,0,0,1,.18,0h.09a.57.57,0,0,1,.28,0h.83a.77.77,0,0,0,.32,0,.27.27,0,0,0,.18,0h.09a.17.17,0,0,0,.14,0h.09c.09,0,.14,0,.23,0a4.6,4.6,0,0,0,1.38-.61,5.55,5.55,0,0,0,1.19-.94,6,6,0,0,0,.92-1.22A7.58,7.58,0,0,0,73.4,16a5.79,5.79,0,0,0,.23-1.59A5.54,5.54,0,0,0,73.17,12.14Zm-2.67,3.14a4.45,4.45,0,0,1-.28.7,1.87,1.87,0,0,1-.46.56,4.89,4.89,0,0,1-.55.47,1.79,1.79,0,0,1-.69.28,3.05,3.05,0,0,1-.64.09h-.14a1.53,1.53,0,0,1-.46,0c-.09,0-.18,0-.28,0a2.14,2.14,0,0,1-.69-.28,1.85,1.85,0,0,1-.55-.47,4.94,4.94,0,0,1-.46-.56,1.87,1.87,0,0,1-.28-.7,4.2,4.2,0,0,1-.09-.8,4.7,4.7,0,0,1,.09-.8,4.46,4.46,0,0,1,.28-.7,1.87,1.87,0,0,1,.46-.56,4.9,4.9,0,0,1,.55-.47,2.14,2.14,0,0,1,.69-.28.67.67,0,0,1,.32,0,1.54,1.54,0,0,1,.46,0h.14a2.1,2.1,0,0,1,1,.23,3.94,3.94,0,0,1,.92.61,2.5,2.5,0,0,1,.6.94,3.07,3.07,0,0,1,.23,1.12A2.42,2.42,0,0,1,70.51,15.28Z"/><path d="M38.43,7.59a1.7,1.7,0,1,1-1.7-1.73A1.71,1.71,0,0,1,38.43,7.59Z"/><path d="M96.39,11.3V14H100v2H96.39v4.45H94.18V9.33h6.71v2Z"/><path d="M100.94,16.64a4,4,0,1,1,4,3.89A3.85,3.85,0,0,1,100.94,16.64Zm5.79,0a1.84,1.84,0,1,0-3.68,0,1.82,1.82,0,0,0,1.84,1.92A1.85,1.85,0,0,0,106.73,16.64Z"/><path d="M115.42,12.94,115,15a2.2,2.2,0,0,0-1.06-.28c-1.06,0-1.79,1-1.79,3.14v2.58H110v-7.5h2.07v1.59a2.24,2.24,0,0,1,2.16-1.78A2.31,2.31,0,0,1,115.42,12.94Z"/><path d="M126.86,17.2a3.12,3.12,0,0,1-3.4,3.19h-4.64V9.33h4.32a2.86,2.86,0,0,1,3.17,2.86,2.27,2.27,0,0,1-1.52,2.3A2.61,2.61,0,0,1,126.86,17.2ZM121,11.3v2.44h2a1.08,1.08,0,0,0,1.1-1.22A1.1,1.1,0,0,0,123,11.3ZM124.65,17a1.38,1.38,0,0,0-1.52-1.41H121v2.81h2.11A1.42,1.42,0,0,0,124.65,17Z"/><path d="M135.22,12.89v7.5h-2.07V19.17a2.36,2.36,0,0,1-2.21,1.41c-1.93,0-2.94-1.31-2.9-3.56V12.89h2.07v3.89c0,1.17.69,1.69,1.38,1.69a1.58,1.58,0,0,0,1.65-1.73V12.89Z"/><path d="M136.47,18h1.93a1,1,0,0,0,1.1.89c.6,0,1.06-.23,1.06-.7s-.23-.47-.78-.61l-1-.23c-1.88-.52-2.16-1.59-2.16-2.39,0-1.17,1.2-2.25,2.9-2.25,1.33,0,2.9.66,2.9,2.44h-2c0-.52-.41-.75-.92-.75s-.87.23-.87.61.32.52.74.66l1.2.33c1.75.47,2,1.59,2,2.2,0,1.59-1.56,2.34-3.08,2.34S136.47,19.64,136.47,18Z"/><path d="M143.54,10.31A1.29,1.29,0,0,1,144.83,9a1.26,1.26,0,0,1,1.29,1.27,1.29,1.29,0,0,1-2.57,0Zm.28,2.58h2.07v7.5h-2.07Z"/><path d="M154.76,16.26v4.12h-2.07V16.5c0-1.17-.69-1.73-1.38-1.73a1.6,1.6,0,0,0-1.65,1.78v3.84h-2.07v-7.5h2.07v1.27a2.33,2.33,0,0,1,2.21-1.45C153.75,12.7,154.76,14,154.76,16.26Z"/><path d="M163.58,17.3H158a1.82,1.82,0,0,0,1.88,1.36,2.65,2.65,0,0,0,1.93-.84L163,19a4.07,4.07,0,0,1-3.26,1.45,3.75,3.75,0,0,1-3.91-3.89,3.79,3.79,0,0,1,3.91-3.94,3.68,3.68,0,0,1,3.81,3.8A2.59,2.59,0,0,1,163.58,17.3Zm-2-1.36a1.54,1.54,0,0,0-1.7-1.41,1.72,1.72,0,0,0-1.79,1.41Z"/><path d="M164.37,18h1.93a1,1,0,0,0,1.1.89c.6,0,1.06-.23,1.06-.7s-.23-.47-.78-.61l-1-.23c-1.88-.52-2.16-1.59-2.16-2.39,0-1.17,1.2-2.25,2.9-2.25,1.33,0,2.9.66,2.9,2.44h-2c0-.52-.41-.75-.92-.75s-.87.23-.87.61.32.52.74.66l1.2.33c1.75.47,2,1.59,2,2.2,0,1.59-1.56,2.34-3.08,2.34A2.69,2.69,0,0,1,164.37,18Z"/><path d="M171.3,18h1.93a1,1,0,0,0,1.1.89c.6,0,1.06-.23,1.06-.7s-.23-.47-.78-.61l-1-.23c-1.88-.52-2.16-1.59-2.16-2.39,0-1.17,1.2-2.25,2.9-2.25,1.33,0,2.9.66,2.9,2.44h-2c0-.52-.41-.75-.92-.75s-.87.23-.87.61.32.52.74.66l1.2.33c1.75.47,2,1.59,2,2.2,0,1.59-1.56,2.34-3.08,2.34A2.69,2.69,0,0,1,171.3,18Z"/></svg>